<svg xmlns="http://www.w3.org/2000/svg" xmlns:xlink="http://www.w3.org/1999/xlink" width="25" height="25" viewBox="0 0 25 25">
  <defs>
    <clipPath id="clip-icons_effectTitleBeforeFile">
      <rect width="25" height="25"/>
    </clipPath>
  </defs>
  <g id="icons_effectTitleBeforeFile" clip-path="url(#clip-icons_effectTitleBeforeFile)">
    <path id="Pfad_331" data-name="Pfad 331" d="M-56,15.163l-1.624.352-1.3-1.057-.974,1.41-.65-1.41-.65,1.41-.65-2.115-.65,2.819V13.048l-.974,3.877-.325-4.582-.65,10.22-.325-14.1-.65,10.22-.325-9.515L-66.39,20.1l-.325-7.048-.325,4.582L-67.365,6s-.65,17.621-.65,17.974-.325-14.8-.325-14.8l-.974,7.753-.325-3.877-.65,3.172-.325-1.762-.325,1.41-.65-1.057-.325.7-.65-.352" transform="translate(77.561 -3.266)" fill="none" stroke="#000" stroke-linecap="round" stroke-linejoin="round" stroke-width="1"/>
  </g>
</svg>
