<?xml version="1.0" encoding="utf-8"?>
<!-- Generator: Adobe Illustrator 23.0.4, SVG Export Plug-In . SVG Version: 6.00 Build 0)  -->
<svg version="1.1" id="Ebene_1" xmlns="http://www.w3.org/2000/svg" xmlns:xlink="http://www.w3.org/1999/xlink" x="0px" y="0px"
	 viewBox="0 0 32 32" style="enable-background:new 0 0 32 32;" xml:space="preserve">
<style type="text/css">
	.st0{fill:#1D1D1B;}
	.st1{fill:none;stroke:#1D1D1B;stroke-width:2;stroke-miterlimit:10;}
</style>
<g>
	<path class="st1" d="M28,16.5c0,0-5.4,6.5-12,6.5S4,16.5,4,16.5S9.4,10,16,10S28,16.5,28,16.5z"/>
	<path class="st0" d="M18.1,13.9c0.5,0.5,0.9,1.3,0.9,2.1c0,1.7-1.3,3-3,3c-0.8,0-1.6-0.3-2.1-0.9"/>
	<path class="st1" d="M20.2,11.8c1.1,1.1,1.8,2.6,1.8,4.2c0,3.3-2.7,6-6,6c-1.7,0-3.2-0.7-4.2-1.8"/>
	<line class="st1" x1="26.2" y1="5.8" x2="5.8" y2="26.2"/>
</g>
</svg>
