<?xml version="1.0" encoding="utf-8"?>
<!-- Generator: Adobe Illustrator 23.0.4, SVG Export Plug-In . SVG Version: 6.00 Build 0)  -->
<svg version="1.1" id="Ebene_1" xmlns="http://www.w3.org/2000/svg" xmlns:xlink="http://www.w3.org/1999/xlink" x="0px" y="0px"
	 viewBox="0 0 80 80" style="enable-background:new 0 0 80 80;" xml:space="preserve">
<style type="text/css">
	.st0{fill:#1D1D1B;}
	.st1{fill:none;stroke:#1D1D1B;stroke-width:2;stroke-miterlimit:10;}
	.st2{fill:#2F14FF;}
	.st3{fill:none;stroke:#C6C6C5;stroke-width:2;stroke-miterlimit:10;}
	.st4{fill:none;stroke:#1D1D1B;stroke-width:5;stroke-miterlimit:10;}
	.st5{fill:none;stroke:#2F14FF;stroke-width:6.5037;stroke-miterlimit:10;}
	.st6{fill:#B0B0B0;stroke:#B0B0B0;stroke-width:2;stroke-miterlimit:10;}
	.st7{fill:#1D1D1B;stroke:#1D1D1B;stroke-width:3;stroke-miterlimit:10;}
	.st8{fill:#FFFFFF;}
	.st9{fill:none;stroke:#FFFFFF;stroke-width:4;stroke-miterlimit:10;}
	.st10{fill:none;stroke:#1D1D1B;stroke-width:4;stroke-miterlimit:10;}
	.st11{fill:none;stroke:#1D1D1B;stroke-miterlimit:10;}
	.st12{fill:none;stroke:#1D1D1B;stroke-width:2;stroke-linecap:round;stroke-miterlimit:10;}
	.st13{fill:none;stroke:#1D1D1B;stroke-width:2;stroke-linejoin:round;stroke-miterlimit:10;}
	.st14{fill:#FFFFFF;stroke:#1D1D1B;stroke-miterlimit:10;}
	.st15{fill:none;stroke:#FFFFFF;stroke-width:2;stroke-miterlimit:10;}
	.st16{fill:none;stroke:#2F14FF;stroke-width:2;stroke-miterlimit:10;}
	.st17{fill:none;stroke:#2F14FF;stroke-width:2;stroke-linecap:round;stroke-linejoin:round;stroke-miterlimit:10;}
	.st18{fill:none;stroke:#1D1D1B;stroke-width:2;stroke-linecap:round;stroke-linejoin:round;stroke-miterlimit:10;}
	.st19{opacity:0.65;fill:#1D1D1B;}
	.st20{opacity:0.61;fill:#1D1D1B;}
	.st21{fill:#E5007E;}
	.st22{fill:none;stroke:#E5007E;stroke-width:7;stroke-miterlimit:10;}
</style>
<polygon class="st16" points="74,16.2 74,26.2 61.5,26.2 61.5,10 67.7,10 "/>
<path class="st17" d="M69,40l-5.8,1.2l-4.6-3.8l-3.5,5l-2.3-5l-2.3,5L48.2,35l-2.3,10V32.5l-3.5,13.8L41.3,30L39,66.2l-1.2-50
	l-2.3,36.2l-1.2-33.8l-2.3,38.8l-1.2-25l-1.2,16.2L28.7,7.5c0,0-2.3,62.5-2.3,63.8s-1.2-52.5-1.2-52.5l-3.5,27.5l-1.2-13.8
	l-2.3,11.2l-1.2-6.2l-1.2,5l-2.3-3.8l-1.2,2.5L10.2,40"/>
<polyline class="st16" points="67.7,10 67.7,16.2 74,16.2 "/>
</svg>
